<svg version="1.1" id="logo" xmlns="http://www.w3.org/2000/svg" xmlns:xlink="http://www.w3.org/1999/xlink" viewBox="114 140 501.5 219" xml:space="preserve">
<g>
	<g>
		<g>
			<path class="st0" d="M312.761,285.041c0.315,2.178,0.757,2.168,0.983-0.02l5.512-53.375c0.226-2.188-1.335-3.542-3.47-3.009
				l-6.905,1.727c-2.135,0.533-3.624,2.751-3.309,4.929L312.761,285.041z"/>
		</g>
	</g>
	<path class="st0" d="M314.833,289c2.111-20.444,4.222-40.889,6.333-61.333c0.104-1.003-1.032-1.663-1.899-1.446
		c-4.889,1.222-9.778,2.444-14.667,3.667c-0.865,0.216-1.162,1.052-1.047,1.845c2.778,19.222,5.556,38.444,8.333,57.667
		c0.276,1.909,3.166,1.094,2.893-0.798c-2.778-19.222-5.556-38.444-8.333-57.667c-0.349,0.615-0.698,1.23-1.047,1.845
		c4.889-1.222,9.778-2.444,14.667-3.667c-0.633-0.482-1.266-0.964-1.899-1.446c-2.111,20.444-4.222,40.889-6.333,61.333
		C311.635,290.924,314.637,290.905,314.833,289z"/>
</g>
<g>
	<g>
		<g>
			<path class="st0" d="M451.695,283.885c-1.115,1.896-0.393,2.699,1.607,1.783l107.061-49.003c2-0.916,1.889-1.235-0.248-0.71
				l-89.896,22.091c-2.137,0.525-4.798,2.506-5.913,4.402L451.695,283.885z"/>
		</g>
	</g>
	<path class="st0" d="M450.424,288.629c38.111-17.445,76.225-34.889,114.333-52.333c1.597-0.731,0.438-3.133-1.155-2.742
		c-23.923,5.878-47.846,11.757-71.769,17.636c-8.628,2.121-17.257,4.241-25.885,6.361c-1.006,0.247-1.598,1.858-2.055,2.637
		c-1.734,2.951-3.472,5.901-5.206,8.852c-3.339,5.674-6.677,11.349-10.015,17.023c-0.101,0.171-0.202,0.343-0.303,0.515
		c-0.983,1.671,1.608,3.18,2.59,1.515c2.778-4.723,5.556-9.445,8.334-14.167c1.847-3.139,3.692-6.278,5.539-9.417
		c0.636-1.08,1.271-2.16,1.905-3.24c0.854-1.452,1.25-1.13,0.005-0.824c8.629-2.12,17.257-4.241,25.886-6.361
		c23.922-5.879,47.845-11.757,71.77-17.636c-0.387-0.914-0.771-1.828-1.155-2.742c-38.111,17.445-76.225,34.889-114.333,52.333
		C447.152,286.843,448.679,289.428,450.424,288.629z"/>
</g>
<path class="st0" d="M319.277,321c0,0.398,0.004,0.609,0.426,0.731l18.641,4.487c0.406,0.094,0.75-0.062,0.812-0.484l2.637-75.135
	c0.08-2.199,0.498-2.232,0.928-0.075l20.906,104.859c0.43,2.157,0.99,2.135,1.245-0.051l24.578-211.127
	c0.254-2.185,0.012-2.23-0.539-0.101l-28.199,109.018c-0.551,2.13-1.462,2.132-2.025,0.006l-16.745-63.286
	c-0.563-2.126-2.705-3.225-4.76-2.439l-219.157,83.692c-2.055,0.785-1.988,1.854,0.149,2.374l188.313,44.991
	c0.389,0.105,0.642,0.224,0.826-0.272l3.234-18.547c0.062-0.391-0.215-0.551-0.453-0.625l-179.041-26.508
	c-2.176-0.322-2.227-1.081-0.111-1.686l197.403-56.458c2.115-0.605,3.632,0.687,3.371,2.872L319.277,321z"/>
<path class="st0" d="M428.278,168.572c-0.251-0.072-0.591-0.087-0.528,0.47l3.625,19.849c0.233,0.586,0.526,0.679,0.896,0.758
	l169.525,36.005c2.152,0.457,2.283,1.596,0.292,2.53l-159.87,75.011c-1.991,0.935-3.868-0.084-4.17-2.264L416.87,167.264
	c-0.245-2.139-1.87-3.639-1.679,1.294l4.117,86.446c0.104,2.198-1.601,3.82-3.791,3.606l-7.528-0.736
	c-2.19-0.214-4.066-2.187-4.17-4.385l-3.632-77.162c-0.104-2.198-0.414-2.21-0.691-0.027l-13.039,102.677
	c-0.277,2.183,0.196,5.627,1.051,7.654l21.189,50.236c0.854,2.026,1.438,1.89,1.293-0.307l-3.812-58.2
	c-0.145-2.195,0.348-2.297,1.09-0.227l21.049,58.653c0.742,2.07,2.88,2.812,4.746,1.649l178.75-111.302
	c1.866-1.163,1.673-2.635-0.435-3.271"/>
</svg>
